<svg xmlns="http://www.w3.org/2000/svg" viewBox="0 0 378.494 379.043"><path d="M299.29 234.805c-7.762-8.078-17.121-12.398-27.039-12.398-9.84 0-19.281 4.238-27.359 12.32l-25.282 25.199c-2.082-1.121-4.16-2.16-6.16-3.199-2.879-1.441-5.601-2.801-7.922-4.242-23.679-15.039-45.199-34.641-65.839-60-10-12.641-16.719-23.282-21.598-34.078 6.558-6 12.64-12.243 18.558-18.243 2.243-2.238 4.481-4.558 6.723-6.8 16.797-16.797 16.797-38.559 0-55.36l-21.844-21.84c-2.476-2.48-5.039-5.039-7.437-7.597-4.801-4.961-9.84-10.082-15.039-14.883-7.762-7.68-17.043-11.758-26.801-11.758-9.762 0-19.199 4.078-27.199 11.758l-.16.16-27.203 27.442C7.45 71.524 1.61 84.004.329 98.485c-1.918 23.359 4.961 45.121 10.242 59.359 12.957 34.961 32.321 67.359 61.2 102.082 35.039 41.84 77.199 74.879 125.359 98.16 18.398 8.719 42.961 19.039 70.398 20.797 1.684.082 3.442.16 5.043.16 18.481 0 34-6.636 46.16-19.84.079-.16.239-.238.321-.398 4.16-5.039 8.957-9.602 14-14.48 3.437-3.282 6.957-6.719 10.398-10.321 7.922-8.238 12.078-17.84 12.078-27.679 0-9.918-4.238-19.442-12.316-27.442l-43.922-44.078zm28.641 84.238c-.082 0-.082.082 0 0-3.121 3.364-6.321 6.403-9.762 9.762-5.199 4.961-10.48 10.16-15.438 16-8.082 8.641-17.601 12.719-30.082 12.719-1.199 0-2.48 0-3.679-.078-23.758-1.52-45.84-10.801-62.399-18.719-45.281-21.922-85.043-53.043-118.082-92.481-27.277-32.882-45.519-63.281-57.597-95.921-7.442-19.918-10.161-35.442-8.961-50.079.8-9.363 4.398-17.121 11.039-23.761l27.281-27.282c3.918-3.679 8.078-5.679 12.16-5.679 5.039 0 9.117 3.043 11.68 5.601l.238.239c4.883 4.562 9.52 9.281 14.402 14.32 2.481 2.562 5.04 5.121 7.598 7.762l21.84 21.84c8.48 8.48 8.48 16.32 0 24.8-2.32 2.321-4.559 4.641-6.879 6.879-6.719 6.879-13.121 13.281-20.078 19.52-.16.16-.32.242-.402.398-6.879 6.883-5.598 13.602-4.161 18.16l.243.723c5.679 13.758 13.679 26.719 25.839 42.16l.079.078c22.082 27.199 45.359 48.403 71.039 64.641 3.281 2.082 6.64 3.762 9.84 5.359 2.882 1.442 5.601 2.801 7.921 4.242.321.161.641.399.961.559 2.719 1.359 5.278 2 7.918 2 6.641 0 10.801-4.16 12.16-5.519l27.36-27.36c2.722-2.723 7.043-6 12.082-6 4.961 0 9.039 3.117 11.519 5.84l44.239 44.238c8.242 8.16 8.242 16.563.082 25.039zM204.571 90.164c20.957 3.52 40 13.442 55.2 28.641 15.199 15.199 25.039 34.238 28.64 55.199.879 5.282 5.438 8.961 10.641 8.961.637 0 1.199-.082 1.84-.16 5.918-.961 9.839-6.559 8.879-12.48-4.321-25.36-16.321-48.481-34.641-66.801-18.32-18.321-41.441-30.321-66.801-34.641-5.918-.957-11.437 2.961-12.48 8.801-1.039 5.84 2.8 11.519 8.722 12.48zm173.758 77.039c-7.117-41.757-26.801-79.757-57.039-110-30.238-30.238-68.238-49.917-110-57.039-5.84-1.039-11.359 2.961-12.398 8.801a10.851 10.851 0 0 0 8.879 12.481c37.281 6.32 71.281 24 98.32 50.961 27.039 27.039 44.64 61.039 50.961 98.32.879 5.277 5.437 8.957 10.637 8.957.64 0 1.203-.078 1.839-.16 5.844-.879 9.844-6.481 8.801-12.321zm0 0"/></svg>