<svg xmlns="http://www.w3.org/2000/svg" viewBox="0 0 16.3 16.3"><g opacity=".5"><path fill="#E9E9E8" d="M175.9-65.6H-46.4c-2.2 0-4-1.8-4-4v-6c0-2.2 1.8-4 4-4h222.3c2.2 0 4 1.8 4 4v6c0 2.2-1.8 4-4 4z"/><path fill="#F4F2F1" d="M175.9-65.1H-46.4c-2.2 0-4-1.8-4-4v-6c0-2.2 1.8-4 4-4h222.3c2.2 0 4 1.8 4 4v6c0 2.2-1.8 4-4 4z"/></g><path fill="#8A8E90" d="M173.3-72.3H-43.8c-.6 0-1.2-.5-1.2-1.2v-.3c0-.6.5-1.2 1.2-1.2h217.1c.6 0 1.2.5 1.2 1.2v.3c0 .7-.6 1.2-1.2 1.2z"/><path fill="#606465" d="M-43.7-74h.8v1.9h-.8zm215.5 0h.8v1.9h-.8z"/><g fill="#F4D2CE"><path d="M8.1 0C3.7 0 0 3.8 0 8.2s3.8 8.1 8.2 8.1c4.4 0 8.1-3.8 8.1-8.2 0-4.4-3.8-8.1-8.2-8.1zm.1 15.5c-4 0-7.4-3.3-7.4-7.3S4.1.8 8.1.8s7.4 3.3 7.4 7.3-3.3 7.4-7.3 7.4z"/><path d="M9.7 7.6h1.9c.2 0 .4-.2.4-.4s-.2-.4-.4-.4H9.7c-.2 0-.4.2-.4.4s.2.4.4.4zm-5 0h1.9c.2 0 .4-.2.4-.4s-.2-.4-.4-.4H4.7c-.3 0-.4.2-.4.4s.1.4.4.4zm7.2 2.9c-.2-.1-.4 0-.5.1-.6 1.1-1.8 1.8-3.2 1.8s-2.6-.6-3.2-1.7c-.1-.2-.3-.2-.5-.1s-.2.3-.1.5c.8 1.3 2.3 2.1 3.9 2.1s3.1-.8 3.9-2.2c0-.2-.1-.4-.3-.5z"/></g></svg>